<?xml version="1.0" encoding="utf-8"?>
<!-- Generator: Adobe Illustrator 28.0.0, SVG Export Plug-In . SVG Version: 6.00 Build 0)  -->
<svg version="1.1" id="photo_x5F_2025-05-07_x5F_18-13-09_xA0_Image_00000081617541083534681960000014806584697451595695_"
	 xmlns="http://www.w3.org/2000/svg" xmlns:xlink="http://www.w3.org/1999/xlink" x="0px" y="0px" viewBox="0 0 1001 688"
	 style="enable-background:new 0 0 1001 688;" xml:space="preserve">
<style type="text/css">
	.st0{fill:#01AAFE;}
	.st1{fill:#FEFEFE;}
	.st2{fill:#FEAA01;}
	.st3{fill:#FE0055;}
	.st4{fill:#01A901;}
	.st5{fill:#A904A5;}
</style>
<g>
	<path class="st0" d="M586.23,0C724.42,0,862.62,0,1001,0c0,226.33,0,452.66,0,679c-2.84-0.13-7.35,0.82-8.24-0.56
		c-4.78-7.42-8.64-15.44-12.86-23.22c-5.76-10.6-11.64-21.13-17.25-31.8c-0.9-1.72-1.54-4.52-0.76-6.02
		c6.34-12.12,13.08-24.03,19.64-36.04c3.56-6.53,7.13-13.07,10.43-19.74c2.07-4.19,0.92-5.91-3.58-5.93
		c-11.83-0.05-23.66-0.21-35.47,0.16c-2.08,0.06-4.92,2-5.97,3.88c-4.51,8.07-8.46,16.45-12.69,24.67
		c-0.47,0.92-1.45,1.58-2.77,2.97c-4.48-9.2-8.67-17.8-12.86-26.4c-1.3-2.66-2.24-5.41-6.19-5.36c-12.32,0.16-24.65,0.08-36.97,0.05
		c-4.14-0.01-4.98,1.75-3.16,5.28c2.4,4.67,4.62,9.44,7.09,14.07c6.1,11.42,12.43,22.71,18.4,34.19c2.81,5.41,6.9,10.09,2.4,17.51
		c-10.15,16.76-19.06,34.26-28.53,51.44c-0.52,0.95-1.56,2.28-2.36,2.29c-3.88,0.03-7.77-0.34-12.19-0.6c0-2.6,0-4.74,0-6.88
		c0-36.83,0-73.66,0-110.49c0-6.79-0.01-6.79-6.95-6.79c-9.99,0-20,0.34-29.97-0.14c-5.24-0.25-6.46,1.6-6.44,6.41
		c0.13,39.24,0.07,78.49,0.07,118.03c-8.05,0-15.52,0-23.67,0c0-6.48,0-12.28,0-18.09c0-47.83,0-95.65,0-143.48
		c0-6.72,0-6.69-6.42-6.74c-16.14-0.12-32.28-0.33-48.42-0.3c-1.24,0-2.94,1.3-3.61,2.46c-1.13,1.98-1.65,4.32-2.36,6.53
		c-5.96,18.55-11.94,37.09-17.85,55.65c-2.75,8.64-5.38,17.32-8.07,25.98c-2.43,7.81-4.87,15.62-7.75,24.87
		c-3.49-10.64-6.57-19.86-9.54-29.11c-4.53-14.11-8.98-28.26-13.49-42.38c-4.25-13.32-8.58-26.62-12.78-39.96
		c-0.87-2.76-2.28-3.84-5.34-3.81c-16.49,0.17-32.98,0.07-49.47,0.1c-1.1,0-2.2,0.26-3.96,0.49c0,55.99,0,111.73,0,168.3
		c-5.28-0.35-9.84-0.65-14.41-0.95c-0.07-9.41-0.16-18.83-0.21-28.24c-0.09-18.39-0.16-36.78-0.24-55.17
		c0.43-1.02,1.2-2.03,1.23-3.06c0.33-11.62,0.64-23.24,0.7-34.86c0.01-1.77-1.3-3.55-2-5.32c0.04-1.67,0.11-3.33,0.11-5
		C586.24,365.26,586.23,182.63,586.23,0z M854.4,279.79c0-75.64-0.17-151.28,0.18-226.92c0.05-11.61-7.19-22.54-21.6-22.44
		c-3.67,0.03-7.95,1.94-10.83,4.33c-5.83,4.82-7.33,11.7-7.32,19.25c0.1,148.28,0.07,296.56,0.07,444.84c0,1.5,0.44,3.16-0.06,4.47
		c-1.8,4.77,0.01,9.02,1.43,13.36c2.39,7.32,14.16,15,20.54,12.98c11.37-3.6,17.71-9.86,17.68-22.95
		C854.31,431.07,854.4,355.43,854.4,279.79z"/>
	<path class="st1" d="M586.13,552.88c0.7,1.77,2.01,3.55,2,5.32c-0.06,11.62-0.37,23.24-0.7,34.86c-0.03,1.03-0.8,2.04-1.23,3.06
		c-6.74,0.02-13.8-1.2-20.16,0.37c-8.31,2.05-15.29,5.08-14.94,17.3c0.56,19.78,0.35,39.6,0.02,59.39c-0.09,5.3,2.04,6.62,6.61,6.55
		c9.64-0.15,19.28-0.14,28.92-0.2c4.56,0.3,9.13,0.6,14.41,0.95c0-56.57,0-112.31,0-168.3c1.75-0.22,2.85-0.48,3.96-0.49
		c16.49-0.03,32.98,0.07,49.47-0.1c3.06-0.03,4.47,1.05,5.34,3.81c4.2,13.34,8.53,26.64,12.78,39.96
		c4.51,14.12,8.96,28.26,13.49,42.38c2.97,9.25,6.05,18.47,9.54,29.11c2.88-9.25,5.32-17.06,7.75-24.87
		c2.69-8.66,5.32-17.34,8.07-25.98c5.91-18.56,11.89-37.1,17.85-55.65c0.71-2.21,1.22-4.55,2.36-6.53c0.67-1.16,2.37-2.46,3.61-2.46
		c16.14-0.03,32.28,0.18,48.42,0.3c6.42,0.05,6.42,0.02,6.42,6.74c0,47.83,0,95.65,0,143.48c0,5.8,0,11.6,0,18.09
		c8.15,0,15.62,0,23.67,0c0-39.54,0.06-78.78-0.07-118.03c-0.02-4.81,1.2-6.67,6.44-6.41c9.97,0.48,19.98,0.14,29.97,0.14
		c6.94,0,6.95,0,6.95,6.79c0,36.83,0,73.66,0,110.49c0,2.14,0,4.28,0,6.88c4.42,0.26,8.31,0.63,12.19,0.6
		c0.81-0.01,1.84-1.34,2.36-2.29c9.47-17.17,18.38-34.68,28.53-51.44c4.5-7.42,0.41-12.1-2.4-17.51
		c-5.97-11.48-12.3-22.78-18.4-34.19c-2.47-4.63-4.69-9.4-7.09-14.07c-1.82-3.53-0.98-5.29,3.16-5.28
		c12.32,0.04,24.65,0.12,36.97-0.05c3.95-0.05,4.89,2.7,6.19,5.36c4.19,8.6,8.38,17.2,12.86,26.4c1.32-1.39,2.3-2.05,2.77-2.97
		c4.23-8.23,8.18-16.61,12.69-24.67c1.05-1.88,3.9-3.81,5.97-3.88c11.81-0.37,23.65-0.21,35.47-0.16c4.51,0.02,5.65,1.74,3.58,5.93
		c-3.3,6.67-6.86,13.2-10.43,19.74c-6.55,12.01-13.29,23.92-19.64,36.04c-0.78,1.49-0.14,4.3,0.76,6.02
		c5.61,10.68,11.5,21.2,17.25,31.8c4.23,7.78,8.08,15.8,12.86,23.22c0.89,1.38,5.4,0.43,8.24,0.56c0,3,0,6,0,9
		c-333.48,0-666.96,0-1000.44,0c0-3,0-6,0-9c0.34-0.37,0.67-0.73,1.01-1.1c0.3,0.46,0.59,0.92,0.89,1.38c0,0-0.08-0.16-0.08-0.16
		c0.27,0.36,0.53,0.72,0.8,1.08c0.27,0.09,0.53,0.18,0.8,0.27c11.99,0,23.99,0,35.7,0c-4.93-4.51-10.22-8.74-14.76-13.65
		C13.5,654.47,8.71,638.96,6.73,622.87c-2.48-20.11-2.52-40.38,2.75-60.24c4.33-16.34,12.65-30.34,26.41-40.37
		c7.98-5.81,16.9-9.58,26.96-11.58c14.38-2.85,28.39-1.97,42.23,1.25c15.96,3.71,28.87,12.65,37.64,26.82
		c6.62,10.7,10.58,22.21,9.97,35.55c-14.03,0-27.63,0.09-41.23-0.19c-1.04-0.02-2.75-2.59-2.92-4.11
		c-1.65-14.66-6.59-21.36-20.7-24.36c-8.93-1.9-17.72-0.82-25.08,5.74c-8.08,7.2-10.31,17.31-10.84,26.89
		c-0.9,16.31-0.4,32.83,1.16,49.11c1.15,12.03,6.22,22.75,20.1,25.67c11.54,2.43,25.32,0.25,31.3-10.96
		c2.55-4.77,3.54-10.38,5.36-16.01c13.6,0,27.99,0,43.08,0c-0.5,23.36-9.53,41.47-29.43,54.07c10.32,0.51,20.22,0.62,30.11,0.39
		c1.31-0.03,2.58-1.74,3.87-2.67c9.21,0.87,18.42,1.75,27.64,2.62c0.08-0.49,0.17-0.97,0.25-1.46
		c-13.64-10.09-20.06-24.58-22.55-40.46c-1.62-10.32-1.19-21.18-0.14-31.65c1.85-18.38,9.79-33.68,25.45-44.56
		c8.58-5.96,18.11-8.28,28.18-9.33c22.75-2.36,43.2,1.09,59.28,19.86c8.33,9.72,12.65,20.55,13.67,32.67
		c0.92,11,0.78,22.19-0.01,33.21c-0.84,11.66-5.41,22.21-13.01,31.26c-2.66,3.17-5.46,6.22-8.47,9.65c10.15,0,19.64,0,29.13,0
		c8.2,0,8.2,0,8.2-8.24c0-55.12-0.01-110.25,0.03-165.37c0-2.31-0.98-5.25,2.73-5.93c0.43,0.23,0.86,0.67,1.3,0.67
		c12.25,0.05,24.51,0.07,36.76,0.04c0.39,0,0.79-0.54,1.18-0.83c4.09,0.26,3.29,3.32,3.29,5.86c0.01,55.31,0.01,110.62,0.01,165.93
		c0,1.33-0.43,2.89,0.12,3.94c0.78,1.49,2.26,3.69,3.48,3.72c11.36,0.28,22.73,0.17,33.49,0.17c-4.42-5.54-9.17-10.85-13.18-16.67
		c-5.66-8.2-6.93-17.86-8.63-27.48c-2.32-13.15-1.45-26.11,1.97-38.67c2.05-7.52,6.72-14.35,10.35-21.42
		c4.9-9.57,13.7-14.71,23.07-18.32c16.38-6.31,33.46-6.06,50.29-2.03c11.15,2.67,20.68,8.82,27.93,17.89
		c15.19,18.99,15.41,41.27,13.34,63.88c-0.47,5.17-1.84,10.31-3.26,15.33c-2.99,10.6-9.6,18.92-17.57,26.93
		c9.41,0.59,18.75,0.61,28.09,0.59c6.32-0.02,6.42-0.13,6.42-6.44c0-37.65,0.02-75.3-0.04-112.95c-0.01-3.08,0.06-5.75,3.92-6.23
		c1.76,0.32,3.52,0.88,5.28,0.9c7.81,0.1,15.61,0.04,23.42,0.04c9.62,0,9.62,0,10.91,9.66c4.38-6.18,10.17-10.17,17.01-11.33
		C573.07,552.26,579.67,552.96,586.13,552.88z M448.8,620.45c-0.12-8.69-1.82-16.76-6.51-24.19c-3.26-5.16-8.26-7.15-13.74-7.07
		c-5.09,0.07-9.93,2.15-12.58,7.09c-8.6,16.03-7.4,32.44-1.17,48.75c2.59,6.79,14.8,11.1,20.41,8.01c6.71-3.7,10.38-9.55,11.7-16.84
		C447.87,631.01,448.2,625.7,448.8,620.45z M245.1,623.15c0.48-0.13,0.96-0.25,1.44-0.38c-2.25-8.52-4.02-17.21-6.9-25.51
		c-2.03-5.84-10.48-8.98-16.57-7.8c-7.05,1.37-10.4,6.48-12.75,12.34c-4.79,11.94-4.05,24.3-1.22,36.46
		c0.92,3.93,3.45,7.97,6.34,10.87c7.76,7.79,18.24,6.48,24.13-2.5C244.19,639.58,245.21,631.44,245.1,623.15z M747.98,579.86
		c-0.14-0.05-0.29-0.09-0.43-0.14c-11.22,33.26-22.43,66.52-33.72,99.99c10.8,0,20.99,0,30.58,0
		C745.61,646.08,746.79,612.97,747.98,579.86z M677.42,679.83c-11.24-32.98-22.33-65.51-33.42-98.03c-0.26,0.08-0.52,0.17-0.78,0.25
		c1.15,32.46,2.3,64.92,3.47,97.78C656.47,679.83,666.55,679.83,677.42,679.83z M931.77,652.79c-4.92,9.57-9.35,18.17-13.89,26.99
		c9.63,0,18.8,0,28.7,0C941.59,670.68,936.95,662.22,931.77,652.79z"/>
	<path class="st2" d="M510.16,554.06c-3.86,0.48-3.93,3.15-3.92,6.23c0.06,37.65,0.04,75.3,0.04,112.95c0,6.31-0.09,6.42-6.42,6.44
		c-9.34,0.02-18.68,0.01-28.09-0.59c7.96-8.02,14.57-16.33,17.57-26.93c1.42-5.02,2.78-10.16,3.26-15.33
		c2.07-22.61,1.84-44.88-13.34-63.88c-7.25-9.07-16.79-15.22-27.93-17.89c-16.83-4.03-33.91-4.28-50.29,2.03
		c-9.37,3.61-18.17,8.75-23.07,18.32c-3.62,7.07-8.3,13.9-10.35,21.42c-3.42,12.56-4.29,25.52-1.97,38.67
		c1.7,9.62,2.98,19.28,8.63,27.48c4.01,5.82,8.76,11.13,13.18,16.67c-10.76,0-22.13,0.12-33.49-0.17c-1.23-0.03-2.7-2.23-3.48-3.72
		c-0.55-1.05-0.12-2.61-0.12-3.94c0-55.31,0-110.62-0.01-165.93c0-2.54,0.8-5.59-3.29-5.86c0.02-2.5,0.06-5,0.06-7.49
		c0-161.85,0-323.7,0.01-485.55c0-2.33,0.15-4.65,0.23-6.98c54.3,0,108.61,0,162.91,0c0.08,2.33,0.23,4.65,0.23,6.98
		c0.01,176.7,0.01,353.4,0,530.11C510.5,542.74,510.28,548.4,510.16,554.06z"/>
	<path class="st3" d="M157.46,677.85c-1.29,0.93-2.56,2.64-3.87,2.67c-9.89,0.23-19.79,0.12-30.11-0.39
		c19.9-12.61,28.94-30.72,29.43-54.07c-15.09,0-29.48,0-43.08,0c-1.82,5.62-2.81,11.23-5.36,16.01
		c-5.99,11.21-19.76,13.39-31.3,10.96c-13.88-2.92-18.95-13.65-20.1-25.67c-1.56-16.27-2.06-32.79-1.16-49.11
		c0.53-9.57,2.76-19.69,10.84-26.89c7.36-6.56,16.15-7.64,25.08-5.74c14.11,3,19.05,9.7,20.7,24.36c0.17,1.52,1.88,4.09,2.92,4.11
		c13.6,0.28,27.2,0.19,41.23,0.19c0.61-13.33-3.35-24.85-9.97-35.55c-8.77-14.17-21.68-23.11-37.64-26.82
		c-13.84-3.22-27.85-4.1-42.23-1.25c-10.07,2-18.99,5.77-26.96,11.58c-13.76,10.03-22.08,24.03-26.41,40.37
		c-5.27,19.86-5.23,40.13-2.75,60.24c1.99,16.09,6.77,31.6,18.18,43.95c4.54,4.92,9.84,9.14,14.76,13.65c-11.71,0-23.7,0-35.69,0
		c-0.18-0.32-0.45-0.41-0.81-0.27c-0.27-0.36-0.53-0.72-0.79-1.08c0,0,0.07,0.16,0.07,0.16c-0.3-0.46-0.59-0.92-0.89-1.38
		c0.27-47.92,0.74-95.84,0.77-143.77C2.43,358.42,2.37,182.71,2.38,6.99C2.38,4.66,2.5,2.33,2.56,0C54.2,0,105.83,0,157.47,0
		c0.04,1.83,0.11,3.66,0.11,5.49c0,222.12,0,444.24,0,666.36C157.58,673.86,157.5,675.85,157.46,677.85z"/>
	<path class="st2" d="M157.46,677.85c0.04-2,0.12-4,0.12-6c0.01-222.12,0.01-444.24,0-666.36c0-1.83-0.07-3.66-0.11-5.49
		c49.97,0,99.94,0,149.92,0c0.08,2.33,0.23,4.65,0.23,6.98c0.01,161.89,0.01,323.78,0.02,485.67c0,2.49,0.12,4.99,0.19,7.48
		c-3.71,0.68-2.73,3.62-2.73,5.93c-0.03,55.12-0.03,110.25-0.03,165.37c0,8.24,0,8.24-8.2,8.24c-9.49,0-18.97,0-29.13,0
		c3.02-3.43,5.81-6.48,8.47-9.65c7.6-9.05,12.17-19.6,13.01-31.26c0.79-11.03,0.93-22.21,0.01-33.21
		c-1.02-12.11-5.34-22.94-13.67-32.67c-16.08-18.77-36.52-22.22-59.28-19.86c-10.07,1.05-19.6,3.37-28.18,9.33
		c-15.67,10.87-23.61,26.18-25.45,44.56c-1.05,10.46-1.48,21.33,0.14,31.65c2.49,15.88,8.91,30.37,22.55,40.46
		c-0.08,0.49-0.17,0.97-0.25,1.46C175.88,679.6,166.67,678.73,157.46,677.85z"/>
	<path class="st4" d="M510.16,554.06c0.12-5.66,0.34-11.31,0.34-16.97c0.02-176.7,0.02-353.4,0-530.11c0-2.33-0.15-4.65-0.23-6.98
		c25.32,0,50.64,0,75.96,0c0,182.63,0,365.25,0,547.88c0,1.67-0.07,3.33-0.11,5c-6.46,0.08-13.05-0.62-19.34,0.45
		c-6.84,1.16-12.63,5.15-17.01,11.33c-1.29-9.66-1.29-9.66-10.91-9.66c-7.81,0-15.61,0.06-23.42-0.04
		C513.68,554.94,511.92,554.37,510.16,554.06z"/>
	<path class="st5" d="M307.83,500.14c-0.07-2.49-0.19-4.99-0.19-7.48c-0.01-161.89-0.01-323.78-0.02-485.67
		c0-2.33-0.15-4.65-0.23-6.98c13.33,0,26.65,0,39.98,0c-0.08,2.33-0.23,4.65-0.23,6.98c-0.01,161.85-0.01,323.7-0.01,485.55
		c0,2.5-0.04,4.99-0.06,7.49c-0.39,0.29-0.79,0.83-1.18,0.83c-12.25,0.03-24.51,0.01-36.76-0.04
		C308.69,500.81,308.26,500.37,307.83,500.14z"/>
	<path class="st5" d="M2.56,0C2.5,2.33,2.38,4.66,2.38,6.99C2.37,182.71,2.43,358.42,2.33,534.14c-0.03,47.92-0.5,95.85-0.77,143.77
		c-0.34,0.36-0.67,0.73-1.01,1.09c0-224.83-0.01-449.66,0.14-674.5C0.7,3.21-1.77-0.12,2.56,0z"/>
	<path class="st1" d="M854.4,279.79c0,75.64-0.09,151.28,0.08,226.92c0.03,13.09-6.31,19.35-17.68,22.95
		c-6.37,2.02-18.15-5.66-20.54-12.98c-1.42-4.34-3.23-8.6-1.43-13.36c0.5-1.31,0.06-2.97,0.06-4.47
		c0-148.28,0.02-296.56-0.07-444.84c0-7.54,1.49-14.42,7.32-19.25c2.89-2.39,7.17-4.3,10.83-4.33c14.4-0.1,21.65,10.82,21.6,22.44
		C854.24,128.51,854.4,204.15,854.4,279.79z"/>
	<path class="st4" d="M586.65,679.54c-9.64,0.06-19.28,0.06-28.92,0.2c-4.57,0.07-6.7-1.25-6.61-6.55
		c0.33-19.79,0.54-39.61-0.02-59.39c-0.34-12.22,6.63-15.25,14.94-17.3c6.37-1.57,13.42-0.35,20.16-0.37
		c0.08,18.39,0.14,36.78,0.24,55.17C586.49,660.71,586.58,670.12,586.65,679.54z"/>
	<path class="st2" d="M448.8,620.45c-0.6,5.25-0.93,10.56-1.87,15.75c-1.33,7.29-4.99,13.14-11.7,16.84
		c-5.61,3.09-17.81-1.22-20.41-8.01c-6.23-16.32-7.44-32.73,1.17-48.75c2.65-4.93,7.49-7.01,12.58-7.09
		c5.47-0.08,10.48,1.92,13.74,7.07C446.98,603.68,448.68,611.75,448.8,620.45z"/>
	<path class="st2" d="M245.1,623.15c0.1,8.29-0.91,16.43-5.54,23.48c-5.89,8.98-16.37,10.28-24.13,2.5
		c-2.89-2.9-5.42-6.94-6.34-10.87c-2.83-12.16-3.57-24.52,1.22-36.46c2.35-5.86,5.7-10.96,12.75-12.34
		c6.09-1.19,14.55,1.96,16.57,7.8c2.88,8.3,4.65,16.99,6.9,25.51C246.07,622.89,245.59,623.02,245.1,623.15z"/>
	<path class="st0" d="M747.98,579.86c-1.18,33.11-2.37,66.22-3.57,99.85c-9.59,0-19.78,0-30.58,0
		c11.29-33.47,22.51-66.73,33.72-99.99C747.69,579.76,747.83,579.81,747.98,579.86z"/>
	<path class="st0" d="M677.42,679.83c-10.87,0-20.95,0-30.73,0c-1.17-32.86-2.32-65.32-3.47-97.78c0.26-0.08,0.52-0.17,0.78-0.25
		C655.09,614.32,666.18,646.84,677.42,679.83z"/>
	<path class="st0" d="M931.77,652.79c5.18,9.43,9.82,17.89,14.81,26.99c-9.9,0-19.07,0-28.7,0
		C922.42,670.96,926.85,662.36,931.77,652.79z"/>
	<path class="st5" d="M3.17,680.21c0.36-0.15,0.63-0.06,0.81,0.27C3.71,680.39,3.44,680.3,3.17,680.21z"/>
	<path class="st5" d="M2.45,679.28c0,0-0.07-0.16-0.07-0.16C2.38,679.13,2.45,679.28,2.45,679.28z"/>
</g>
</svg>
